<svg width="35" height="36" viewBox="0 0 35 36" fill="none" xmlns="http://www.w3.org/2000/svg">
<path d="M24.9724 29.7148C23.566 31.0782 22.0304 30.8629 20.5522 30.2171C18.988 29.5569 17.5528 29.5282 15.9025 30.2171C13.8359 31.1069 12.7452 30.8485 11.511 29.7148C4.50765 22.4962 5.54093 11.5032 13.4915 11.1014C15.4289 11.2018 16.7779 12.1633 17.9116 12.2495C19.6051 11.905 21.2267 10.9148 23.035 11.044C25.202 11.2162 26.838 12.0772 27.9144 13.6272C23.4368 16.3108 24.4988 22.2091 28.6032 23.8595C27.7852 26.0122 26.7232 28.1505 24.958 29.7291L24.9724 29.7148ZM17.7681 11.0153C17.5528 7.81495 20.1504 5.17434 23.1354 4.91602C23.5516 8.61861 19.7773 11.374 17.7681 11.0153Z" fill="white"/>
</svg>
