<svg width="24" height="24" viewBox="0 0 24 24" fill="none" xmlns="http://www.w3.org/2000/svg">
<g clip-path="url(#clip0_115_1877)">
<path d="M8.52396 0.809384C6.15802 1.63015 4.11764 3.18799 2.70251 5.25408C1.28739 7.32018 0.572108 9.78562 0.66174 12.2883C0.751372 14.7909 1.64119 17.1989 3.20049 19.1584C4.7598 21.118 6.9064 22.5259 9.32499 23.1753C11.2858 23.6813 13.3401 23.7035 15.3114 23.2401C17.0972 22.8389 18.7482 21.9809 20.1028 20.75C21.5126 19.4298 22.5359 17.7503 23.0627 15.892C23.6353 13.8713 23.7372 11.7462 23.3606 9.6799H12.3497V14.2474H18.7264C18.599 14.9759 18.3259 15.6712 17.9235 16.2917C17.5211 16.9122 16.9976 17.4451 16.3844 17.8585C15.6057 18.3736 14.728 18.7202 13.8074 18.876C12.8842 19.0477 11.9372 19.0477 11.014 18.876C10.0783 18.6826 9.19308 18.2963 8.41481 17.742C7.16452 16.857 6.22572 15.5996 5.73238 14.1494C5.2307 12.672 5.2307 11.0703 5.73238 9.59296C6.08355 8.55738 6.66408 7.6145 7.43064 6.83468C8.30787 5.92588 9.41847 5.27627 10.6406 4.95712C11.8627 4.63796 13.1491 4.6616 14.3587 5.02542C15.3036 5.31548 16.1677 5.82227 16.882 6.50539C17.6011 5.79007 18.3188 5.07291 19.0354 4.35389C19.4054 3.96725 19.8087 3.59911 20.1731 3.20322C19.0827 2.18848 17.8027 1.39888 16.4066 0.879682C13.8642 -0.0434626 11.0824 -0.0682712 8.52396 0.809384Z" fill="white"/>
<path d="M8.52371 0.809368C11.0819 -0.0688843 13.8638 -0.0447287 16.4064 0.877816C17.8027 1.40055 19.0821 2.19394 20.171 3.21246C19.801 3.60835 19.4107 3.97834 19.0333 4.36313C18.3155 5.07967 17.5983 5.79376 16.8818 6.50537C16.1674 5.82225 15.3034 5.31547 14.3585 5.02541C13.1493 4.6603 11.8629 4.63531 10.6405 4.95315C9.41801 5.271 8.30673 5.91942 7.42853 6.82726C6.66197 7.60708 6.08145 8.54997 5.73028 9.58554L1.89532 6.61637C3.268 3.89428 5.64471 1.81209 8.52371 0.809368Z" fill="#E33629"/>
<path d="M0.877826 9.55779C1.08395 8.53623 1.42616 7.54694 1.8953 6.61636L5.73025 9.59294C5.22857 11.0703 5.22857 12.672 5.73025 14.1494C4.45255 15.136 3.17423 16.1276 1.8953 17.1241C0.720859 14.7863 0.362675 12.1228 0.877826 9.55779Z" fill="#F8BD00"/>
<path d="M12.3495 9.67807H23.3604C23.737 11.7443 23.6351 13.8694 23.0625 15.8902C22.5357 17.7484 21.5124 19.428 20.1026 20.7482C18.865 19.7825 17.6218 18.8242 16.3842 17.8586C16.9978 17.4447 17.5215 16.9112 17.9239 16.29C18.3264 15.6689 18.5993 14.9729 18.7262 14.2438H12.3495C12.3476 12.7231 12.3495 11.2006 12.3495 9.67807Z" fill="#587DBD"/>
<path d="M1.89349 17.1241C3.17243 16.1375 4.45074 15.1459 5.72844 14.1494C6.22277 15.6001 7.16291 16.8575 8.41458 17.742C9.19527 18.2938 10.0824 18.6768 11.0193 18.8668C11.9425 19.0384 12.8895 19.0384 13.8127 18.8668C14.7333 18.7109 15.611 18.3644 16.3897 17.8493C17.6273 18.815 18.8705 19.7732 20.1081 20.7389C18.7538 21.9705 17.1027 22.8291 15.3167 23.2308C13.3455 23.6942 11.2911 23.672 9.3303 23.166C7.77949 22.752 6.33093 22.022 5.07541 21.022C3.74652 19.9669 2.66114 18.6373 1.89349 17.1241Z" fill="#319F43"/>
</g>
<defs>
<clipPath id="clip0_115_1877">
<rect width="23.6794" height="23.6794" fill="white" transform="translate(0.27478 0.0305481)"/>
</clipPath>
</defs>
</svg>
